STARTFONT 2.1
FONT pinefont-2
SIZE 14 75 75
FONTBOUNDINGBOX 10 14 0 -1
STARTPROPERTIES 2
FONT_ASCENT 12
FONT_DESCENT 2
ENDPROPERTIES
CHARS 128
STARTCHAR U+0020
ENCODING 32
SWIDTH 500 0
DWIDTH 11 0
BBX 10 12 0 -2
BITMAP
00
0
00
0
00
0
00
0
00
0
00
0
00
0
ENDCHAR
STARTCHAR U+0021
ENCODING 33
SWIDTH 500 0
DWIDTH 11 0
BBX 10 12 0 -2
BITMAP
04
4
04
4
04
4
04
4
04
4
04
4
04
4
ENDCHAR
STARTCHAR U+0022
ENCODING 34
SWIDTH 500 0
DWIDTH 11 0
BBX 10 12 0 -2
BITMAP
0a
a
0a
a
0a
a
0a
a
00
0
00
0
00
0
ENDCHAR
STARTCHAR U+0023
ENCODING 35
SWIDTH 500 0
DWIDTH 11 0
BBX 10 12 0 -2
BITMAP
0a
a
0a
a
a
a
0a
a
1f
1f
01f
1f
0a
a
ENDCHAR
STARTCHAR U+0024
ENCODING 36
SWIDTH 500 0
DWIDTH 11 0
BBX 10 12 0 -2
BITMAP
04
4
04
4
0e
e
0e
e
5
5
05
5
0e
e
ENDCHAR
STARTCHAR U+0025
ENCODING 37
SWIDTH 500 0
DWIDTH 11 0
BBX 10 12 0 -2
BITMAP
00
0
0
0
013
13
013
13
b
b
b
b
04
4
ENDCHAR
STARTCHAR U+0026
ENCODING 38
SWIDTH 500 0
DWIDTH 11 0
BBX 10 12 0 -2
BITMAP
02
2
02
2
05
5
05
5
5
5
05
5
2
2
ENDCHAR
STARTCHAR U+0027
ENCODING 39
SWIDTH 500 0
DWIDTH 11 0
BBX 10 12 0 -2
BITMAP
04
4
04
4
04
4
04
4
00
0
00
0
00
0
ENDCHAR
STARTCHAR U+0028
ENCODING 40
SWIDTH 500 0
DWIDTH 11 0
BBX 10 12 0 -2
BITMAP
08
8
08
8
04
4
04
4
02
2
02
2
02
2
ENDCHAR
STARTCHAR U+0029
ENCODING 41
SWIDTH 500 0
DWIDTH 11 0
BBX 10 12 0 -2
BITMAP
02
2
02
2
04
4
04
4
08
8
08
8
08
8
ENDCHAR
STARTCHAR U+002a
ENCODING 42
SWIDTH 500 0
DWIDTH 11 0
BBX 10 12 0 -2
BITMAP
00
0
00
0
00
0
00
0
0a
a
0a
a
04
4
ENDCHAR
STARTCHAR U+002b
ENCODING 43
SWIDTH 500 0
DWIDTH 11 0
BBX 10 12 0 -2
BITMAP
00
0
00
0
04
4
4
4
04
4
04
4
01f
1f
ENDCHAR
STARTCHAR U+002c
ENCODING 44
SWIDTH 500 0
DWIDTH 11 0
BBX 10 12 0 -2
BITMAP
00
0
00
0
00
0
00
0
00
0
00
0
00
0
ENDCHAR
STARTCHAR U+002d
ENCODING 45
SWIDTH 500 0
DWIDTH 11 0
BBX 10 12 0 -2
BITMAP
00
0
00
0
00
0
00
0
00
0
00
0
0e
e
ENDCHAR
STARTCHAR U+002e
ENCODING 46
SWIDTH 500 0
DWIDTH 11 0
BBX 10 12 0 -2
BITMAP
00
0
00
0
00
0
00
0
00
0
00
0
00
0
ENDCHAR
STARTCHAR U+002f
ENCODING 47
SWIDTH 500 0
DWIDTH 11 0
BBX 10 12 0 -2
BITMAP
10
10
010
10
08
8
08
8
08
8
08
8
04
4
ENDCHAR
STARTCHAR U+0030
ENCODING 48
SWIDTH 500 0
DWIDTH 11 0
BBX 10 12 0 -2
BITMAP
0c
c
c
c
12
12
12
12
12
12
12
12
012
12
ENDCHAR
STARTCHAR U+0031
ENCODING 49
SWIDTH 500 0
DWIDTH 11 0
BBX 10 12 0 -2
BITMAP
08
8
08
8
0c
c
0c
c
08
8
08
8
8
8
ENDCHAR
STARTCHAR U+0032
ENCODING 50
SWIDTH 500 0
DWIDTH 11 0
BBX 10 12 0 -2
BITMAP
0e
e
e
e
10
10
10
10
010
10
010
10
1c
1c
ENDCHAR
STARTCHAR U+0033
ENCODING 51
SWIDTH 500 0
DWIDTH 11 0
BBX 10 12 0 -2
BITMAP
06
6
06
6
08
8
08
8
08
8
08
8
06
6
ENDCHAR
STARTCHAR U+0034
ENCODING 52
SWIDTH 500 0
DWIDTH 11 0
BBX 10 12 0 -2
BITMAP
08
8
08
8
04
4
04
4
a
a
0a
a
09
9
ENDCHAR
STARTCHAR U+0035
ENCODING 53
SWIDTH 500 0
DWIDTH 11 0
BBX 10 12 0 -2
BITMAP
0e
e
0e
e
02
2
02
2
02
2
02
2
06
6
ENDCHAR
STARTCHAR U+0036
ENCODING 54
SWIDTH 500 0
DWIDTH 11 0
BBX 10 12 0 -2
BITMAP
0c
c
0c
c
02
2
02
2
2
2
2
2
0e
e
ENDCHAR
STARTCHAR U+0037
ENCODING 55
SWIDTH 500 0
DWIDTH 11 0
BBX 10 12 0 -2
BITMAP
1e
1e
1e
1e
010
10
010
10
08
8
08
8
08
8
ENDCHAR
STARTCHAR U+0038
ENCODING 56
SWIDTH 500 0
DWIDTH 11 0
BBX 10 12 0 -2
BITMAP
0c
c
c
c
12
12
012
12
12
12
12
12
0c
c
ENDCHAR
STARTCHAR U+0039
ENCODING 57
SWIDTH 500 0
DWIDTH 11 0
BBX 10 12 0 -2
BITMAP
0c
c
c
c
12
12
12
12
12
12
012
12
01c
1c
ENDCHAR
STARTCHAR U+003a
ENCODING 58
SWIDTH 500 0
DWIDTH 11 0
BBX 10 12 0 -2
BITMAP
06
6
06
6
06
6
06
6
00
0
00
0
00
0
ENDCHAR
STARTCHAR U+003b
ENCODING 59
SWIDTH 500 0
DWIDTH 11 0
BBX 10 12 0 -2
BITMAP
0c
c
0c
c
04
4
04
4
00
0
00
0
00
0
ENDCHAR
STARTCHAR U+003c
ENCODING 60
SWIDTH 500 0
DWIDTH 11 0
BBX 10 12 0 -2
BITMAP
00
0
00
0
08
8
08
8
04
4
04
4
02
2
ENDCHAR
STARTCHAR U+003d
ENCODING 61
SWIDTH 500 0
DWIDTH 11 0
BBX 10 12 0 -2
BITMAP
00
0
00
0
00
0
00
0
0e
e
0e
e
00
0
ENDCHAR
STARTCHAR U+003e
ENCODING 62
SWIDTH 500 0
DWIDTH 11 0
BBX 10 12 0 -2
BITMAP
00
0
00
0
02
2
02
2
04
4
04
4
08
8
ENDCHAR
STARTCHAR U+003f
ENCODING 63
SWIDTH 500 0
DWIDTH 11 0
BBX 10 12 0 -2
BITMAP
0c
c
c
c
12
12
012
12
010
10
010
10
08
8
ENDCHAR
STARTCHAR U+0040
ENCODING 64
SWIDTH 500 0
DWIDTH 11 0
BBX 10 12 0 -2
BITMAP
0e
e
e
e
11
11
11
11
1d
1d
01d
1d
15
15
ENDCHAR
STARTCHAR U+0041
ENCODING 65
SWIDTH 500 0
DWIDTH 11 0
BBX 10 12 0 -2
BITMAP
04
4
04
4
04
4
04
4
0a
a
a
a
a
a
ENDCHAR
STARTCHAR U+0042
ENCODING 66
SWIDTH 500 0
DWIDTH 11 0
BBX 10 12 0 -2
BITMAP
0e
e
e
e
12
12
012
12
12
12
12
12
0e
e
ENDCHAR
STARTCHAR U+0043
ENCODING 67
SWIDTH 500 0
DWIDTH 11 0
BBX 10 12 0 -2
BITMAP
0c
c
0c
c
02
2
02
2
02
2
02
2
02
2
ENDCHAR
STARTCHAR U+0044
ENCODING 68
SWIDTH 500 0
DWIDTH 11 0
BBX 10 12 0 -2
BITMAP
06
6
06
6
a
a
a
a
12
12
012
12
012
12
ENDCHAR
STARTCHAR U+0045
ENCODING 69
SWIDTH 500 0
DWIDTH 11 0
BBX 10 12 0 -2
BITMAP
0e
e
0e
e
02
2
02
2
02
2
02
2
0e
e
ENDCHAR
STARTCHAR U+0046
ENCODING 70
SWIDTH 500 0
DWIDTH 11 0
BBX 10 12 0 -2
BITMAP
1e
1e
01e
1e
02
2
02
2
02
2
02
2
0e
e
ENDCHAR
STARTCHAR U+0047
ENCODING 71
SWIDTH 500 0
DWIDTH 11 0
BBX 10 12 0 -2
BITMAP
0e
e
0e
e
01
1
1
1
1
1
1
1
01d
1d
ENDCHAR
STARTCHAR U+0048
ENCODING 72
SWIDTH 500 0
DWIDTH 11 0
BBX 10 12 0 -2
BITMAP
12
12
12
12
12
12
12
12
12
12
12
12
1e
1e
ENDCHAR
STARTCHAR U+0049
ENCODING 73
SWIDTH 500 0
DWIDTH 11 0
BBX 10 12 0 -2
BITMAP
0e
e
0e
e
04
4
04
4
04
4
04
4
04
4
ENDCHAR
STARTCHAR U+004a
ENCODING 74
SWIDTH 500 0
DWIDTH 11 0
BBX 10 12 0 -2
BITMAP
08
8
08
8
08
8
08
8
08
8
08
8
08
8
ENDCHAR
STARTCHAR U+004b
ENCODING 75
SWIDTH 500 0
DWIDTH 11 0
BBX 10 12 0 -2
BITMAP
11
11
011
11
09
9
09
9
05
5
05
5
2
2
ENDCHAR
STARTCHAR U+004c
ENCODING 76
SWIDTH 500 0
DWIDTH 11 0
BBX 10 12 0 -2
BITMAP
02
2
02
2
02
2
02
2
02
2
02
2
02
2
ENDCHAR
STARTCHAR U+004d
ENCODING 77
SWIDTH 500 0
DWIDTH 11 0
BBX 10 12 0 -2
BITMAP
11
11
11
11
1b
1b
1b
1b
15
15
15
15
15
15
ENDCHAR
STARTCHAR U+004e
ENCODING 78
SWIDTH 500 0
DWIDTH 11 0
BBX 10 12 0 -2
BITMAP
00
0
0
0
11
11
11
11
012
12
12
12
15
15
ENDCHAR
STARTCHAR U+004f
ENCODING 79
SWIDTH 500 0
DWIDTH 11 0
BBX 10 12 0 -2
BITMAP
00
0
00
0
e
e
e
e
11
11
11
11
011
11
ENDCHAR
STARTCHAR U+0050
ENCODING 80
SWIDTH 500 0
DWIDTH 11 0
BBX 10 12 0 -2
BITMAP
1e
1e
1e
1e
12
12
12
12
012
12
012
12
01e
1e
ENDCHAR
STARTCHAR U+0051
ENCODING 81
SWIDTH 500 0
DWIDTH 11 0
BBX 10 12 0 -2
BITMAP
00
0
00
0
e
e
e
e
11
11
011
11
11
11
ENDCHAR
STARTCHAR U+0052
ENCODING 82
SWIDTH 500 0
DWIDTH 11 0
BBX 10 12 0 -2
BITMAP
07
7
07
7
09
9
09
9
09
9
9
9
7
7
ENDCHAR
STARTCHAR U+0053
ENCODING 83
SWIDTH 500 0
DWIDTH 11 0
BBX 10 12 0 -2
BITMAP
0c
c
c
c
012
12
012
12
2
2
2
2
0e
e
ENDCHAR
STARTCHAR U+0054
ENCODING 84
SWIDTH 500 0
DWIDTH 11 0
BBX 10 12 0 -2
BITMAP
1f
1f
01f
1f
04
4
04
4
04
4
04
4
04
4
ENDCHAR
STARTCHAR U+0055
ENCODING 85
SWIDTH 500 0
DWIDTH 11 0
BBX 10 12 0 -2
BITMAP
00
0
0
0
12
12
12
12
12
12
12
12
012
12
ENDCHAR
STARTCHAR U+0056
ENCODING 86
SWIDTH 500 0
DWIDTH 11 0
BBX 10 12 0 -2
BITMAP
00
0
00
0
0
0
0
0
011
11
011
11
011
11
ENDCHAR
STARTCHAR U+0057
ENCODING 87
SWIDTH 500 0
DWIDTH 11 0
BBX 10 12 0 -2
BITMAP
11
11
11
11
15
15
15
15
015
15
015
15
015
15
ENDCHAR
STARTCHAR U+0058
ENCODING 88
SWIDTH 500 0
DWIDTH 11 0
BBX 10 12 0 -2
BITMAP
00
0
0
0
011
11
011
11
0a
a
a
a
4
4
ENDCHAR
STARTCHAR U+0059
ENCODING 89
SWIDTH 500 0
DWIDTH 11 0
BBX 10 12 0 -2
BITMAP
11
11
011
11
0a
a
0a
a
04
4
04
4
04
4
ENDCHAR
STARTCHAR U+005a
ENCODING 90
SWIDTH 500 0
DWIDTH 11 0
BBX 10 12 0 -2
BITMAP
0f
f
f
f
010
10
010
10
08
8
08
8
4
4
ENDCHAR
STARTCHAR U+005b
ENCODING 91
SWIDTH 500 0
DWIDTH 11 0
BBX 10 12 0 -2
BITMAP
0e
e
0e
e
02
2
02
2
02
2
02
2
02
2
ENDCHAR
STARTCHAR U+005c
ENCODING 92
SWIDTH 500 0
DWIDTH 11 0
BBX 10 12 0 -2
BITMAP
02
2
02
2
02
2
02
2
04
4
04
4
04
4
ENDCHAR
STARTCHAR U+005d
ENCODING 93
SWIDTH 500 0
DWIDTH 11 0
BBX 10 12 0 -2
BITMAP
0e
e
0e
e
08
8
08
8
08
8
08
8
08
8
ENDCHAR
STARTCHAR U+005e
ENCODING 94
SWIDTH 500 0
DWIDTH 11 0
BBX 10 12 0 -2
BITMAP
00
0
00
0
04
4
04
4
0a
a
0a
a
00
0
ENDCHAR
STARTCHAR U+005f
ENCODING 95
SWIDTH 500 0
DWIDTH 11 0
BBX 10 12 0 -2
BITMAP
00
0
00
0
00
0
00
0
00
0
00
0
0
0
ENDCHAR
STARTCHAR U+0060
ENCODING 96
SWIDTH 500 0
DWIDTH 11 0
BBX 10 12 0 -2
BITMAP
00
0
00
0
04
4
04
4
08
8
08
8
00
0
ENDCHAR
STARTCHAR U+0061
ENCODING 97
SWIDTH 500 0
DWIDTH 11 0
BBX 10 12 0 -2
BITMAP
00
0
00
0
c
c
c
c
10
10
010
10
01c
1c
ENDCHAR
STARTCHAR U+0062
ENCODING 98
SWIDTH 500 0
DWIDTH 11 0
BBX 10 12 0 -2
BITMAP
02
2
02
2
02
2
2
2
e
e
0e
e
012
12
ENDCHAR
STARTCHAR U+0063
ENCODING 99
SWIDTH 500 0
DWIDTH 11 0
BBX 10 12 0 -2
BITMAP
00
0
0
0
018
18
018
18
04
4
4
4
04
4
ENDCHAR
STARTCHAR U+0064
ENCODING 100
SWIDTH 500 0
DWIDTH 11 0
BBX 10 12 0 -2
BITMAP
10
10
10
10
10
10
10
10
1c
1c
01c
1c
012
12
ENDCHAR
STARTCHAR U+0065
ENCODING 101
SWIDTH 500 0
DWIDTH 11 0
BBX 10 12 0 -2
BITMAP
00
0
00
0
c
c
0c
c
012
12
012
12
0e
e
ENDCHAR
STARTCHAR U+0066
ENCODING 102
SWIDTH 500 0
DWIDTH 11 0
BBX 10 12 0 -2
BITMAP
18
18
018
18
04
4
04
4
04
4
04
4
0c
c
ENDCHAR
STARTCHAR U+0067
ENCODING 103
SWIDTH 500 0
DWIDTH 11 0
BBX 10 12 0 -2
BITMAP
00
0
00
0
c
c
c
c
12
12
12
12
012
12
ENDCHAR
STARTCHAR U+0068
ENCODING 104
SWIDTH 500 0
DWIDTH 11 0
BBX 10 12 0 -2
BITMAP
02
2
02
2
02
2
2
2
e
e
e
e
012
12
ENDCHAR
STARTCHAR U+0069
ENCODING 105
SWIDTH 500 0
DWIDTH 11 0
BBX 10 12 0 -2
BITMAP
00
0
00
0
08
8
08
8
00
0
00
0
08
8
ENDCHAR
STARTCHAR U+006a
ENCODING 106
SWIDTH 500 0
DWIDTH 11 0
BBX 10 12 0 -2
BITMAP
00
0
0
0
010
10
10
10
0
0
0
0
010
10
ENDCHAR
STARTCHAR U+006b
ENCODING 107
SWIDTH 500 0
DWIDTH 11 0
BBX 10 12 0 -2
BITMAP
00
0
00
0
4
4
04
4
14
14
14
14
0c
c
ENDCHAR
STARTCHAR U+006c
ENCODING 108
SWIDTH 500 0
DWIDTH 11 0
BBX 10 12 0 -2
BITMAP
00
0
00
0
04
4
04
4
04
4
04
4
04
4
ENDCHAR
STARTCHAR U+006d
ENCODING 109
SWIDTH 500 0
DWIDTH 11 0
BBX 10 12 0 -2
BITMAP
00
0
00
0
00
0
0
0
a
a
a
a
01b
1b
ENDCHAR
STARTCHAR U+006e
ENCODING 110
SWIDTH 500 0
DWIDTH 11 0
BBX 10 12 0 -2
BITMAP
00
0
00
0
00
0
0
0
c
c
c
c
012
12
ENDCHAR
STARTCHAR U+006f
ENCODING 111
SWIDTH 500 0
DWIDTH 11 0
BBX 10 12 0 -2
BITMAP
00
0
00
0
00
0
0
0
c
c
0c
c
012
12
ENDCHAR
STARTCHAR U+0070
ENCODING 112
SWIDTH 500 0
DWIDTH 11 0
BBX 10 12 0 -2
BITMAP
00
0
00
0
00
0
0
0
c
c
0c
c
012
12
ENDCHAR
STARTCHAR U+0071
ENCODING 113
SWIDTH 500 0
DWIDTH 11 0
BBX 10 12 0 -2
BITMAP
00
0
00
0
00
0
0
0
c
c
c
c
12
12
ENDCHAR
STARTCHAR U+0072
ENCODING 114
SWIDTH 500 0
DWIDTH 11 0
BBX 10 12 0 -2
BITMAP
00
0
00
0
8
8
08
8
014
14
014
14
04
4
ENDCHAR
STARTCHAR U+0073
ENCODING 115
SWIDTH 500 0
DWIDTH 11 0
BBX 10 12 0 -2
BITMAP
00
0
00
0
0c
c
0c
c
02
2
02
2
06
6
ENDCHAR
STARTCHAR U+0074
ENCODING 116
SWIDTH 500 0
DWIDTH 11 0
BBX 10 12 0 -2
BITMAP
04
4
04
4
4
4
04
4
01e
1e
1e
1e
04
4
ENDCHAR
STARTCHAR U+0075
ENCODING 117
SWIDTH 500 0
DWIDTH 11 0
BBX 10 12 0 -2
BITMAP
00
0
00
0
00
0
00
0
0a
a
0a
a
0a
a
ENDCHAR
STARTCHAR U+0076
ENCODING 118
SWIDTH 500 0
DWIDTH 11 0
BBX 10 12 0 -2
BITMAP
00
0
00
0
00
0
00
0
0a
a
0a
a
0a
a
ENDCHAR
STARTCHAR U+0077
ENCODING 119
SWIDTH 500 0
DWIDTH 11 0
BBX 10 12 0 -2
BITMAP
00
0
00
0
0
0
0
0
11
11
011
11
015
15
ENDCHAR
STARTCHAR U+0078
ENCODING 120
SWIDTH 500 0
DWIDTH 11 0
BBX 10 12 0 -2
BITMAP
00
0
00
0
00
0
00
0
0a
a
0a
a
04
4
ENDCHAR
STARTCHAR U+0079
ENCODING 121
SWIDTH 500 0
DWIDTH 11 0
BBX 10 12 0 -2
BITMAP
00
0
00
0
0
0
0
0
012
12
012
12
014
14
ENDCHAR
STARTCHAR U+007a
ENCODING 122
SWIDTH 500 0
DWIDTH 11 0
BBX 10 12 0 -2
BITMAP
00
0
00
0
00
0
00
0
0e
e
0e
e
08
8
ENDCHAR
STARTCHAR U+007b
ENCODING 123
SWIDTH 500 0
DWIDTH 11 0
BBX 10 12 0 -2
BITMAP
0c
c
0c
c
02
2
02
2
02
2
02
2
01
1
ENDCHAR
STARTCHAR U+007c
ENCODING 124
SWIDTH 500 0
DWIDTH 11 0
BBX 10 12 0 -2
BITMAP
00
0
00
0
04
4
04
4
04
4
04
4
04
4
ENDCHAR
STARTCHAR U+007d
ENCODING 125
SWIDTH 500 0
DWIDTH 11 0
BBX 10 12 0 -2
BITMAP
06
6
06
6
08
8
8
8
08
8
08
8
010
10
ENDCHAR
STARTCHAR U+007e
ENCODING 126
SWIDTH 500 0
DWIDTH 11 0
BBX 10 12 0 -2
BITMAP
00
0
00
0
00
0
0
0
02
2
02
2
015
15
ENDCHAR
STARTCHAR U+007f
ENCODING 127
SWIDTH 500 0
DWIDTH 11 0
BBX 10 12 0 -2
BITMAP
0a
a
a
a
015
15
15
15
0a
a
a
a
015
15
ENDCHAR
ENDFONT
