STARTFONT 2.1
FONT psf
SIZE 7 75 75
FONTBOUNDINGBOX 5 7 0 -1
STARTPROPERTIES 3
FONT_DESCENT 1
FONT_ASCENT 6
DEFAULT_CHAR 41
ENDPROPERTIES
CHARS 127
STARTCHAR C0000
ENCODING 0
SWIDTH 666 0
DWIDTH 5 0
BBX 5 7 0 -1
BITMAP
00
00
00
00
00
00
00
ENDCHAR
STARTCHAR C0001
ENCODING 1
SWIDTH 666 0
DWIDTH 5 0
BBX 5 7 0 -1
BITMAP
00
00
00
00
00
00
00
ENDCHAR
STARTCHAR C0002
ENCODING 2
SWIDTH 666 0
DWIDTH 5 0
BBX 5 7 0 -1
BITMAP
00
00
00
00
00
00
00
ENDCHAR
STARTCHAR C0003
ENCODING 3
SWIDTH 666 0
DWIDTH 5 0
BBX 5 7 0 -1
BITMAP
00
00
00
00
00
00
00
ENDCHAR
STARTCHAR C0004
ENCODING 4
SWIDTH 666 0
DWIDTH 5 0
BBX 5 7 0 -1
BITMAP
00
00
00
00
00
00
00
ENDCHAR
STARTCHAR C0005
ENCODING 5
SWIDTH 666 0
DWIDTH 5 0
BBX 5 7 0 -1
BITMAP
00
00
00
00
00
00
00
ENDCHAR
STARTCHAR C0006
ENCODING 6
SWIDTH 666 0
DWIDTH 5 0
BBX 5 7 0 -1
BITMAP
00
00
00
00
00
00
00
ENDCHAR
STARTCHAR C0007
ENCODING 7
SWIDTH 666 0
DWIDTH 5 0
BBX 5 7 0 -1
BITMAP
00
00
00
00
00
00
00
ENDCHAR
STARTCHAR C0008
ENCODING 8
SWIDTH 666 0
DWIDTH 5 0
BBX 5 7 0 -1
BITMAP
00
00
00
00
00
00
00
ENDCHAR
STARTCHAR C0009
ENCODING 9
SWIDTH 666 0
DWIDTH 5 0
BBX 5 7 0 -1
BITMAP
00
00
00
00
00
00
00
ENDCHAR
STARTCHAR C000a
ENCODING 10
SWIDTH 666 0
DWIDTH 5 0
BBX 5 7 0 -1
BITMAP
00
00
00
00
00
00
00
ENDCHAR
STARTCHAR C000b
ENCODING 11
SWIDTH 666 0
DWIDTH 5 0
BBX 5 7 0 -1
BITMAP
00
00
00
00
00
00
00
ENDCHAR
STARTCHAR C000c
ENCODING 12
SWIDTH 666 0
DWIDTH 5 0
BBX 5 7 0 -1
BITMAP
00
00
00
00
00
00
00
ENDCHAR
STARTCHAR C000d
ENCODING 13
SWIDTH 666 0
DWIDTH 5 0
BBX 5 7 0 -1
BITMAP
00
00
00
00
00
00
00
ENDCHAR
STARTCHAR C000e
ENCODING 14
SWIDTH 666 0
DWIDTH 5 0
BBX 5 7 0 -1
BITMAP
00
00
00
00
00
00
00
ENDCHAR
STARTCHAR C000f
ENCODING 15
SWIDTH 666 0
DWIDTH 5 0
BBX 5 7 0 -1
BITMAP
00
00
00
00
00
00
00
ENDCHAR
STARTCHAR C0010
ENCODING 16
SWIDTH 666 0
DWIDTH 5 0
BBX 5 7 0 -1
BITMAP
00
00
00
00
00
00
00
ENDCHAR
STARTCHAR C0011
ENCODING 17
SWIDTH 666 0
DWIDTH 5 0
BBX 5 7 0 -1
BITMAP
00
00
00
00
00
00
00
ENDCHAR
STARTCHAR C0012
ENCODING 18
SWIDTH 666 0
DWIDTH 5 0
BBX 5 7 0 -1
BITMAP
00
00
00
00
00
00
00
ENDCHAR
STARTCHAR C0013
ENCODING 19
SWIDTH 666 0
DWIDTH 5 0
BBX 5 7 0 -1
BITMAP
00
00
00
00
00
00
00
ENDCHAR
STARTCHAR C0014
ENCODING 20
SWIDTH 666 0
DWIDTH 5 0
BBX 5 7 0 -1
BITMAP
00
00
00
00
00
00
00
ENDCHAR
STARTCHAR C0015
ENCODING 21
SWIDTH 666 0
DWIDTH 5 0
BBX 5 7 0 -1
BITMAP
00
00
00
00
00
00
00
ENDCHAR
STARTCHAR C0016
ENCODING 22
SWIDTH 666 0
DWIDTH 5 0
BBX 5 7 0 -1
BITMAP
00
00
00
00
00
00
00
ENDCHAR
STARTCHAR C0017
ENCODING 23
SWIDTH 666 0
DWIDTH 5 0
BBX 5 7 0 -1
BITMAP
00
00
00
00
00
00
00
ENDCHAR
STARTCHAR C0018
ENCODING 24
SWIDTH 666 0
DWIDTH 5 0
BBX 5 7 0 -1
BITMAP
00
00
00
00
00
00
00
ENDCHAR
STARTCHAR C0019
ENCODING 25
SWIDTH 666 0
DWIDTH 5 0
BBX 5 7 0 -1
BITMAP
00
00
00
00
00
00
00
ENDCHAR
STARTCHAR C001a
ENCODING 26
SWIDTH 666 0
DWIDTH 5 0
BBX 5 7 0 -1
BITMAP
00
00
00
00
00
00
00
ENDCHAR
STARTCHAR C001b
ENCODING 27
SWIDTH 666 0
DWIDTH 5 0
BBX 5 7 0 -1
BITMAP
00
00
00
00
00
00
00
ENDCHAR
STARTCHAR C001c
ENCODING 28
SWIDTH 666 0
DWIDTH 5 0
BBX 5 7 0 -1
BITMAP
00
00
00
00
00
00
00
ENDCHAR
STARTCHAR C001d
ENCODING 29
SWIDTH 666 0
DWIDTH 5 0
BBX 5 7 0 -1
BITMAP
00
00
00
00
00
00
00
ENDCHAR
STARTCHAR C001e
ENCODING 30
SWIDTH 666 0
DWIDTH 5 0
BBX 5 7 0 -1
BITMAP
00
00
00
00
00
00
00
ENDCHAR
STARTCHAR C001f
ENCODING 31
SWIDTH 666 0
DWIDTH 5 0
BBX 5 7 0 -1
BITMAP
00
00
00
00
00
00
00
ENDCHAR
STARTCHAR C0020
ENCODING 32
SWIDTH 666 0
DWIDTH 5 0
BBX 5 7 0 -1
BITMAP
00
00
00
00
00
00
00
ENDCHAR
STARTCHAR C0021
ENCODING 33
SWIDTH 666 0
DWIDTH 5 0
BBX 5 7 0 -1
BITMAP
00
00
00
00
00
00
00
ENDCHAR
STARTCHAR C0022
ENCODING 34
SWIDTH 666 0
DWIDTH 5 0
BBX 5 7 0 -1
BITMAP
00
00
00
00
00
00
00
ENDCHAR
STARTCHAR C0023
ENCODING 35
SWIDTH 666 0
DWIDTH 5 0
BBX 5 7 0 -1
BITMAP
00
00
00
00
00
00
00
ENDCHAR
STARTCHAR C0024
ENCODING 36
SWIDTH 666 0
DWIDTH 5 0
BBX 5 7 0 -1
BITMAP
00
00
00
00
00
00
00
ENDCHAR
STARTCHAR C0025
ENCODING 37
SWIDTH 666 0
DWIDTH 5 0
BBX 5 7 0 -1
BITMAP
00
00
00
00
00
04
04
ENDCHAR
STARTCHAR C0026
ENCODING 38
SWIDTH 666 0
DWIDTH 5 0
BBX 5 7 0 -1
BITMAP
04
04
00
04
00
00
0a
ENDCHAR
STARTCHAR C0027
ENCODING 39
SWIDTH 666 0
DWIDTH 5 0
BBX 5 7 0 -1
BITMAP
0a
00
00
00
00
00
00
ENDCHAR
STARTCHAR C0028
ENCODING 40
SWIDTH 666 0
DWIDTH 5 0
BBX 5 7 0 -1
BITMAP
0a
0a
1f
0a
1f
0a
0a
ENDCHAR
STARTCHAR C0029
ENCODING 41
SWIDTH 666 0
DWIDTH 5 0
BBX 5 7 0 -1
BITMAP
00
04
0e
05
0e
14
0e
ENDCHAR
STARTCHAR C002a
ENCODING 42
SWIDTH 666 0
DWIDTH 5 0
BBX 5 7 0 -1
BITMAP
04
00
00
13
0b
04
1a
ENDCHAR
STARTCHAR C002b
ENCODING 43
SWIDTH 666 0
DWIDTH 5 0
BBX 5 7 0 -1
BITMAP
19
00
00
02
05
05
02
ENDCHAR
STARTCHAR C002c
ENCODING 44
SWIDTH 666 0
DWIDTH 5 0
BBX 5 7 0 -1
BITMAP
15
09
16
00
04
04
00
ENDCHAR
STARTCHAR C002d
ENCODING 45
SWIDTH 666 0
DWIDTH 5 0
BBX 5 7 0 -1
BITMAP
00
00
00
00
00
08
04
ENDCHAR
STARTCHAR C002e
ENCODING 46
SWIDTH 666 0
DWIDTH 5 0
BBX 5 7 0 -1
BITMAP
02
02
02
04
08
00
02
ENDCHAR
STARTCHAR C002f
ENCODING 47
SWIDTH 666 0
DWIDTH 5 0
BBX 5 7 0 -1
BITMAP
04
08
08
08
04
02
00
ENDCHAR
STARTCHAR C0030
ENCODING 48
SWIDTH 666 0
DWIDTH 5 0
BBX 5 7 0 -1
BITMAP
00
00
0a
04
0a
00
00
ENDCHAR
STARTCHAR C0031
ENCODING 49
SWIDTH 666 0
DWIDTH 5 0
BBX 5 7 0 -1
BITMAP
00
00
04
04
1f
04
04
ENDCHAR
STARTCHAR C0032
ENCODING 50
SWIDTH 666 0
DWIDTH 5 0
BBX 5 7 0 -1
BITMAP
00
00
00
00
00
00
00
ENDCHAR
STARTCHAR C0033
ENCODING 51
SWIDTH 666 0
DWIDTH 5 0
BBX 5 7 0 -1
BITMAP
02
01
00
00
00
00
0e
ENDCHAR
STARTCHAR C0034
ENCODING 52
SWIDTH 666 0
DWIDTH 5 0
BBX 5 7 0 -1
BITMAP
00
00
00
00
00
00
00
ENDCHAR
STARTCHAR C0035
ENCODING 53
SWIDTH 666 0
DWIDTH 5 0
BBX 5 7 0 -1
BITMAP
00
06
06
00
00
10
08
ENDCHAR
STARTCHAR C0036
ENCODING 54
SWIDTH 666 0
DWIDTH 5 0
BBX 5 7 0 -1
BITMAP
08
04
02
02
01
00
0c
ENDCHAR
STARTCHAR C0037
ENCODING 55
SWIDTH 666 0
DWIDTH 5 0
BBX 5 7 0 -1
BITMAP
12
12
12
12
12
0c
00
ENDCHAR
STARTCHAR C0038
ENCODING 56
SWIDTH 666 0
DWIDTH 5 0
BBX 5 7 0 -1
BITMAP
08
0c
08
08
08
08
1c
ENDCHAR
STARTCHAR C0039
ENCODING 57
SWIDTH 666 0
DWIDTH 5 0
BBX 5 7 0 -1
BITMAP
00
0e
10
10
1c
02
02
ENDCHAR
STARTCHAR C003a
ENCODING 58
SWIDTH 666 0
DWIDTH 5 0
BBX 5 7 0 -1
BITMAP
1e
00
06
08
08
06
08
ENDCHAR
STARTCHAR C003b
ENCODING 59
SWIDTH 666 0
DWIDTH 5 0
BBX 5 7 0 -1
BITMAP
08
06
00
08
04
0a
09
ENDCHAR
STARTCHAR C003c
ENCODING 60
SWIDTH 666 0
DWIDTH 5 0
BBX 5 7 0 -1
BITMAP
1f
08
08
00
0e
02
02
ENDCHAR
STARTCHAR C003d
ENCODING 61
SWIDTH 666 0
DWIDTH 5 0
BBX 5 7 0 -1
BITMAP
06
08
0a
04
00
0c
02
ENDCHAR
STARTCHAR C003e
ENCODING 62
SWIDTH 666 0
DWIDTH 5 0
BBX 5 7 0 -1
BITMAP
02
0e
12
12
0c
00
1e
ENDCHAR
STARTCHAR C003f
ENCODING 63
SWIDTH 666 0
DWIDTH 5 0
BBX 5 7 0 -1
BITMAP
10
08
08
04
04
04
00
ENDCHAR
STARTCHAR C0040
ENCODING 64
SWIDTH 666 0
DWIDTH 5 0
BBX 5 7 0 -1
BITMAP
0c
12
12
0c
12
12
0c
ENDCHAR
STARTCHAR C0041
ENCODING 65
SWIDTH 666 0
DWIDTH 5 0
BBX 5 7 0 -1
BITMAP
00
0c
12
12
1c
10
08
ENDCHAR
STARTCHAR C0042
ENCODING 66
SWIDTH 666 0
DWIDTH 5 0
BBX 5 7 0 -1
BITMAP
04
00
06
06
00
00
00
ENDCHAR
STARTCHAR C0043
ENCODING 67
SWIDTH 666 0
DWIDTH 5 0
BBX 5 7 0 -1
BITMAP
06
06
00
0c
04
00
00
ENDCHAR
STARTCHAR C0044
ENCODING 68
SWIDTH 666 0
DWIDTH 5 0
BBX 5 7 0 -1
BITMAP
04
04
04
00
00
08
04
ENDCHAR
STARTCHAR C0045
ENCODING 69
SWIDTH 666 0
DWIDTH 5 0
BBX 5 7 0 -1
BITMAP
02
04
08
00
00
00
00
ENDCHAR
STARTCHAR C0046
ENCODING 70
SWIDTH 666 0
DWIDTH 5 0
BBX 5 7 0 -1
BITMAP
0e
00
0e
00
00
00
00
ENDCHAR
STARTCHAR C0047
ENCODING 71
SWIDTH 666 0
DWIDTH 5 0
BBX 5 7 0 -1
BITMAP
02
04
08
04
02
00
00
ENDCHAR
STARTCHAR C0048
ENCODING 72
SWIDTH 666 0
DWIDTH 5 0
BBX 5 7 0 -1
BITMAP
0c
12
10
08
04
00
04
ENDCHAR
STARTCHAR C0049
ENCODING 73
SWIDTH 666 0
DWIDTH 5 0
BBX 5 7 0 -1
BITMAP
00
0e
11
1d
15
1d
01
ENDCHAR
STARTCHAR C004a
ENCODING 74
SWIDTH 666 0
DWIDTH 5 0
BBX 5 7 0 -1
BITMAP
1e
00
04
04
0a
0a
0e
ENDCHAR
STARTCHAR C004b
ENCODING 75
SWIDTH 666 0
DWIDTH 5 0
BBX 5 7 0 -1
BITMAP
11
11
00
0e
12
12
0e
ENDCHAR
STARTCHAR C004c
ENCODING 76
SWIDTH 666 0
DWIDTH 5 0
BBX 5 7 0 -1
BITMAP
12
12
0e
00
0c
02
02
ENDCHAR
STARTCHAR C004d
ENCODING 77
SWIDTH 666 0
DWIDTH 5 0
BBX 5 7 0 -1
BITMAP
02
02
02
0c
00
06
0a
ENDCHAR
STARTCHAR C004e
ENCODING 78
SWIDTH 666 0
DWIDTH 5 0
BBX 5 7 0 -1
BITMAP
12
12
12
0a
06
00
0e
ENDCHAR
STARTCHAR C004f
ENCODING 79
SWIDTH 666 0
DWIDTH 5 0
BBX 5 7 0 -1
BITMAP
02
02
0e
02
02
0e
00
ENDCHAR
STARTCHAR C0050
ENCODING 80
SWIDTH 666 0
DWIDTH 5 0
BBX 5 7 0 -1
BITMAP
1e
02
02
0e
02
02
02
ENDCHAR
STARTCHAR C0051
ENCODING 81
SWIDTH 666 0
DWIDTH 5 0
BBX 5 7 0 -1
BITMAP
00
0e
01
01
1d
15
11
ENDCHAR
STARTCHAR C0052
ENCODING 82
SWIDTH 666 0
DWIDTH 5 0
BBX 5 7 0 -1
BITMAP
0e
00
12
12
12
1e
12
ENDCHAR
STARTCHAR C0053
ENCODING 83
SWIDTH 666 0
DWIDTH 5 0
BBX 5 7 0 -1
BITMAP
12
12
00
0e
04
04
04
ENDCHAR
STARTCHAR C0054
ENCODING 84
SWIDTH 666 0
DWIDTH 5 0
BBX 5 7 0 -1
BITMAP
04
04
0e
00
08
08
08
ENDCHAR
STARTCHAR C0055
ENCODING 85
SWIDTH 666 0
DWIDTH 5 0
BBX 5 7 0 -1
BITMAP
08
08
0a
04
00
11
09
ENDCHAR
STARTCHAR C0056
ENCODING 86
SWIDTH 666 0
DWIDTH 5 0
BBX 5 7 0 -1
BITMAP
05
02
05
09
11
00
02
ENDCHAR
STARTCHAR C0057
ENCODING 87
SWIDTH 666 0
DWIDTH 5 0
BBX 5 7 0 -1
BITMAP
02
02
02
02
02
0e
00
ENDCHAR
STARTCHAR C0058
ENCODING 88
SWIDTH 666 0
DWIDTH 5 0
BBX 5 7 0 -1
BITMAP
11
1b
15
15
11
11
11
ENDCHAR
STARTCHAR C0059
ENCODING 89
SWIDTH 666 0
DWIDTH 5 0
BBX 5 7 0 -1
BITMAP
00
00
11
12
15
09
11
ENDCHAR
STARTCHAR C005a
ENCODING 90
SWIDTH 666 0
DWIDTH 5 0
BBX 5 7 0 -1
BITMAP
11
00
00
0e
11
11
11
ENDCHAR
STARTCHAR C005b
ENCODING 91
SWIDTH 666 0
DWIDTH 5 0
BBX 5 7 0 -1
BITMAP
11
0e
00
1e
12
12
1e
ENDCHAR
STARTCHAR C005c
ENCODING 92
SWIDTH 666 0
DWIDTH 5 0
BBX 5 7 0 -1
BITMAP
02
02
02
00
00
0e
11
ENDCHAR
STARTCHAR C005d
ENCODING 93
SWIDTH 666 0
DWIDTH 5 0
BBX 5 7 0 -1
BITMAP
11
15
09
16
00
07
09
ENDCHAR
STARTCHAR C005e
ENCODING 94
SWIDTH 666 0
DWIDTH 5 0
BBX 5 7 0 -1
BITMAP
09
07
09
11
11
00
0c
ENDCHAR
STARTCHAR C005f
ENCODING 95
SWIDTH 666 0
DWIDTH 5 0
BBX 5 7 0 -1
BITMAP
12
02
0e
10
12
0c
00
ENDCHAR
STARTCHAR C0060
ENCODING 96
SWIDTH 666 0
DWIDTH 5 0
BBX 5 7 0 -1
BITMAP
1f
04
04
04
04
04
04
ENDCHAR
STARTCHAR C0061
ENCODING 97
SWIDTH 666 0
DWIDTH 5 0
BBX 5 7 0 -1
BITMAP
00
00
12
12
12
12
12
ENDCHAR
STARTCHAR C0062
ENCODING 98
SWIDTH 666 0
DWIDTH 5 0
BBX 5 7 0 -1
BITMAP
0c
00
00
00
11
11
0a
ENDCHAR
STARTCHAR C0063
ENCODING 99
SWIDTH 666 0
DWIDTH 5 0
BBX 5 7 0 -1
BITMAP
04
04
00
11
15
15
15
ENDCHAR
STARTCHAR C0064
ENCODING 100
SWIDTH 666 0
DWIDTH 5 0
BBX 5 7 0 -1
BITMAP
0a
0a
0a
00
00
11
0a
ENDCHAR
STARTCHAR C0065
ENCODING 101
SWIDTH 666 0
DWIDTH 5 0
BBX 5 7 0 -1
BITMAP
04
0a
11
11
00
11
0a
ENDCHAR
STARTCHAR C0066
ENCODING 102
SWIDTH 666 0
DWIDTH 5 0
BBX 5 7 0 -1
BITMAP
04
04
04
04
04
00
0f
ENDCHAR
STARTCHAR C0067
ENCODING 103
SWIDTH 666 0
DWIDTH 5 0
BBX 5 7 0 -1
BITMAP
10
08
04
02
01
1f
00
ENDCHAR
STARTCHAR C0068
ENCODING 104
SWIDTH 666 0
DWIDTH 5 0
BBX 5 7 0 -1
BITMAP
0e
02
02
02
02
02
0e
ENDCHAR
STARTCHAR C0069
ENCODING 105
SWIDTH 666 0
DWIDTH 5 0
BBX 5 7 0 -1
BITMAP
00
02
02
04
04
08
08
ENDCHAR
STARTCHAR C006a
ENCODING 106
SWIDTH 666 0
DWIDTH 5 0
BBX 5 7 0 -1
BITMAP
08
00
0e
08
08
08
08
ENDCHAR
STARTCHAR C006b
ENCODING 107
SWIDTH 666 0
DWIDTH 5 0
BBX 5 7 0 -1
BITMAP
08
0e
00
00
04
0a
00
ENDCHAR
STARTCHAR C006c
ENCODING 108
SWIDTH 666 0
DWIDTH 5 0
BBX 5 7 0 -1
BITMAP
00
00
00
00
00
00
00
ENDCHAR
STARTCHAR C006d
ENCODING 109
SWIDTH 666 0
DWIDTH 5 0
BBX 5 7 0 -1
BITMAP
00
00
00
1e
00
00
04
ENDCHAR
STARTCHAR C006e
ENCODING 110
SWIDTH 666 0
DWIDTH 5 0
BBX 5 7 0 -1
BITMAP
08
00
00
00
00
00
00
ENDCHAR
STARTCHAR C006f
ENCODING 111
SWIDTH 666 0
DWIDTH 5 0
BBX 5 7 0 -1
BITMAP
0c
10
1c
12
0c
00
00
ENDCHAR
STARTCHAR C0070
ENCODING 112
SWIDTH 666 0
DWIDTH 5 0
BBX 5 7 0 -1
BITMAP
02
02
0e
12
12
0c
00
ENDCHAR
STARTCHAR C0071
ENCODING 113
SWIDTH 666 0
DWIDTH 5 0
BBX 5 7 0 -1
BITMAP
00
00
18
04
04
04
18
ENDCHAR
STARTCHAR C0072
ENCODING 114
SWIDTH 666 0
DWIDTH 5 0
BBX 5 7 0 -1
BITMAP
00
00
10
10
1c
12
12
ENDCHAR
STARTCHAR C0073
ENCODING 115
SWIDTH 666 0
DWIDTH 5 0
BBX 5 7 0 -1
BITMAP
0c
00
00
00
0c
12
0e
ENDCHAR
STARTCHAR C0074
ENCODING 116
SWIDTH 666 0
DWIDTH 5 0
BBX 5 7 0 -1
BITMAP
02
0c
00
00
18
04
04
ENDCHAR
STARTCHAR C0075
ENCODING 117
SWIDTH 666 0
DWIDTH 5 0
BBX 5 7 0 -1
BITMAP
0c
04
04
00
00
00
0c
ENDCHAR
STARTCHAR C0076
ENCODING 118
SWIDTH 666 0
DWIDTH 5 0
BBX 5 7 0 -1
BITMAP
12
12
1e
10
0e
00
02
ENDCHAR
STARTCHAR C0077
ENCODING 119
SWIDTH 666 0
DWIDTH 5 0
BBX 5 7 0 -1
BITMAP
02
0e
12
12
12
00
00
ENDCHAR
STARTCHAR C0078
ENCODING 120
SWIDTH 666 0
DWIDTH 5 0
BBX 5 7 0 -1
BITMAP
00
08
00
08
08
08
00
ENDCHAR
STARTCHAR C0079
ENCODING 121
SWIDTH 666 0
DWIDTH 5 0
BBX 5 7 0 -1
BITMAP
00
00
10
00
10
10
14
ENDCHAR
STARTCHAR C007a
ENCODING 122
SWIDTH 666 0
DWIDTH 5 0
BBX 5 7 0 -1
BITMAP
08
00
00
04
14
0c
14
ENDCHAR
STARTCHAR C007b
ENCODING 123
SWIDTH 666 0
DWIDTH 5 0
BBX 5 7 0 -1
BITMAP
14
00
00
00
04
04
04
ENDCHAR
STARTCHAR C007c
ENCODING 124
SWIDTH 666 0
DWIDTH 5 0
BBX 5 7 0 -1
BITMAP
04
0c
00
00
00
00
0a
ENDCHAR
STARTCHAR C007d
ENCODING 125
SWIDTH 666 0
DWIDTH 5 0
BBX 5 7 0 -1
BITMAP
1b
15
11
00
00
00
00
ENDCHAR
STARTCHAR C007e
ENCODING 126
SWIDTH 666 0
DWIDTH 5 0
BBX 5 7 0 -1
BITMAP
0c
12
12
12
00
00
00
ENDCHAR
ENDFONT
